<svg id="Layer_1" data-name="Layer 1" xmlns="http://www.w3.org/2000/svg" viewBox="0 0 128.84 111.23"><defs><style>.cls-1{fill:#fff;}.cls-2{fill:#120710;}</style></defs><title>ciie_logo</title><path class="cls-1" d="M5.7,59.44C5.7,66,9,77.71,30.35,77.71h2C53.44,77.71,56.9,67.62,56.9,63V62h-12c-.3.83-1.74,6.74-13.68,6.74-10.76,0-13.93-5.55-13.93-9.91v-.6a7.06,7.06,0,0,1,1.31-3.66H6A14.61,14.61,0,0,0,5.7,58Z" transform="translate(-5.7 -7.03)"/><rect class="cls-1" x="55.33" y="47.56" width="11.56" height="22.3"/><rect class="cls-1" x="72.68" y="47.56" width="11.56" height="22.3"/><polygon class="cls-1" points="90.02 69.86 128.84 69.86 128.84 61.6 100.76 61.6 100.76 55.81 128.01 55.81 128.01 47.56 90.02 47.56 90.02 60.68 90.02 69.86"/><path class="cls-2" d="M30.35,45h2C53.44,45,56.9,35,56.9,30.29v-.13h-12c-.3.82-1.74,6.33-13.68,6.33-10.76,0-13.93-6-13.93-10.31v-.59c0-4.61,2.78-9.7,13.83-9.7,11.69,0,13.43,5.18,13.73,6H56.9v-.28C56.9,17.31,53.74,7,32.38,7h-2C8.55,7,5.7,18.65,5.7,25.34v1.44C5.7,33.32,9,45,30.35,45Z" transform="translate(-5.7 -7.03)"/><rect class="cls-2" x="55.33" y="0.83" width="11.56" height="37.16"/><rect class="cls-2" x="72.68" y="0.83" width="11.56" height="37.16"/><polygon class="cls-2" points="128.84 37.99 128.84 28.91 100.76 28.91 100.76 23.12 128.01 23.12 128.01 14.87 100.76 14.87 100.76 9.09 128.84 9.09 128.84 0.83 90.02 0.83 90.02 37.03 90.02 37.99 128.84 37.99"/><path class="cls-1" d="M30.35,101.19h2c20.79,0,24.63-9.91,24.73-14.86H44.62c-.7,2.48-3.14,5.81-13.18,5.81-7.38,0-11.07-2.51-12.66-5.81H6C7.32,92.94,12.61,101.19,30.35,101.19Z" transform="translate(-5.7 -7.03)"/><rect class="cls-1" x="55.33" y="79.3" width="11.56" height="14.87"/><polygon class="cls-1" points="128.84 94.16 128.84 85.08 100.76 85.08 100.76 79.3 90.02 79.3 90.02 94.16 128.84 94.16"/><path class="cls-1" d="M30.35,118.27h2c14,0,20.31-5,23-9.09h-47C11.37,114.14,17.69,118.27,30.35,118.27Z" transform="translate(-5.7 -7.03)"/><rect class="cls-1" x="55.33" y="102.15" width="11.56" height="8.26"/><rect class="cls-1" x="72.68" y="79.3" width="11.56" height="14.87"/><rect class="cls-1" x="72.68" y="102.15" width="11.56" height="8.26"/><rect class="cls-1" x="90.02" y="102.15" width="38.82" height="8.26"/></svg>